<svg xmlns="http://www.w3.org/2000/svg" viewBox="0 0 354.9 146.89"><defs><style>.cls-1{fill:#fff;}</style></defs><title>appiconwht</title><g id="Layer_2" data-name="Layer 2"><g id="Layer_1-2" data-name="Layer 1"><path class="cls-1" d="M191.32,26.44,175.41,8.55h112.7L304,26.44H256.11l.4,120.45-27.83-5.77V26.44Z"/><path class="cls-1" d="M293.88,51.68V66.39q14.5-22.86,24.64-22.86,5,0,16.7,5.07A122.3,122.3,0,0,1,354.9,59L341.18,78.91q-12.33-9.14-21.37-10T305.4,72.45Q300,76.92,293.88,86.86v60L269,141.32V46.11Z"/><path class="cls-1" d="M53.07,138.74l.2-.4L0,8.75l27.63,5.76,37,92.62L100.77,8.75l29.82,5.76L82.49,146.89Z"/><path class="cls-1" d="M130.19,120.65q5.56,6.76,12.52,8.35t14.61-1.89a89.75,89.75,0,0,0,12.82-7q5.16-3.47,12.13-9.24l4,4,7.55,8.34,4,4q-17.29,12.72-29.22,17a33.5,33.5,0,0,1-23.65-.1q-17.1-6.57-32.2-23.06a40.52,40.52,0,0,1-10.34-23.56,51.37,51.37,0,0,1,3.48-25.34,49.92,49.92,0,0,1,15.11-20q10.23-8.25,22.36-8.25,8,0,23.55,10.23a190.31,190.31,0,0,1,25.94,20q-.2.6-15.8,12.22t-31.31,23Zm-4.57-19.08,45.12-30.81Q156.43,61.63,146.39,64T131,76.43Q125.63,86.47,125.62,101.57Z"/><path class="cls-1" d="M200.35,5.57V146.89l-24.84-5.57V0Z"/></g></g></svg>