<svg xmlns="http://www.w3.org/2000/svg" viewBox="0 0 594.9 256"><defs><style>.cls-2{fill:#6a6b6a}.cls-3{fill:#898988}.cls-4{fill:#a7170d}.cls-5{fill:#c1c1c1}.cls-6{fill:#a2a3a3}.cls-8{fill:#7c140a}.cls-11,.cls-9{fill:#e95433}.cls-10{fill:#a8a7a1}.cls-11{mix-blend-mode:screen}.cls-12{fill:#74160a}.cls-14{fill:#878888}.cls-15{fill:#626362}.cls-16{fill:#797a79}.cls-17{fill:#313030}.cls-18{fill:#0c2518}.cls-19{fill:#aeaeae}.cls-21{fill:#c4c4c3}.cls-23{fill:#7a5435}</style></defs><g style="isolation:isolate"><g id="Layer_2" data-name="Layer 2"><g id="Layer_1-2" data-name="Layer 1"><path d="M337.88 96.31c0 6.3-3.74 11.4-8.36 11.4-4.62 0-8.36-5.1-8.36-11.4V70.2c0-6.3 3.74-11.4 8.36-11.4 4.62 0 8.36 5.1 8.36 11.4ZM337.88 193c0 6.29-3.74 11.39-8.36 11.39-4.62 0-8.36-5.1-8.36-11.39v-26.14c0-6.3 3.74-11.4 8.36-11.4 4.62 0 8.36 5.1 8.36 11.4Z" class="cls-2"/><path d="M522.8 171.47c0 4.65-4.88 8.42-10.89 8.42H305c-6 0-10.89-3.77-10.89-8.42 0-4.66 4.88-8.43 10.89-8.43h206.91c6 0 10.89 3.77 10.89 8.43Z" class="cls-3"/><rect width="188.27" height="92.43" x="271.1" y="81.78" class="cls-4" rx="14.17"/><path d="M159.17 127.41h223.38l-4.05 31.42-116.59 31.46a51 51 0 0 1-23.08 0c-12-3-74.11-42.63-74.11-42.63Z" class="cls-5"/><path d="M258.35 127.41V191a34.8 34.8 0 0 0 3.56-.7l116.59-31.47 4.05-31.42Z" class="cls-6"/><path d="M256.53 127.41h-97.36l5.55 20.25s62.15 39.63 74.11 42.63a49.78 49.78 0 0 0 17.7 1Z" class="cls-5"/><path d="M253.3 187.31c-10.52-4.11-20.48-10.1-30.45-15.74-21.85-12.34-44.51-24.57-63.3-42.78l5.17 18.87s62.15 39.63 74.11 42.63a51 51 0 0 0 23.08 0l.79-.21a52.59 52.59 0 0 1-9.4-2.77Z" class="cls-3"/><path d="M159.17 128.59h223.38l-4.05-31.43-116.59-31.45a51 51 0 0 0-23.08 0c-12 3-74.11 42.62-74.11 42.62Z" class="cls-5"/><path d="M258.35 128.59h124.2l-4.05-31.43-116.59-31.45a36.19 36.19 0 0 0-3.56-.71Z" class="cls-6"/><path d="M256.53 64.75a49.81 49.81 0 0 0-17.7 1c-12 3-74.11 42.62-74.11 42.62l-5.55 20.26h97.36Z" class="cls-5"/><path d="M253.3 68.69c-10.52 4.11-20.48 10.09-30.45 15.73C201 96.76 178.34 109 159.55 127.2l5.17-18.87s62.15-39.62 74.11-42.62a51 51 0 0 1 23.08 0l.79.21a51.78 51.78 0 0 0-9.4 2.77Z" class="cls-3"/><path d="M379 127.19c0 7.83 6.19 31.64-.5 31.64l-201.67-17.46c-6.69 0-12.11-6.35-12.11-14.18v-4.68c0-7.83 5.42-14.18 12.11-14.18l173.75-17.25c6.68 0 28.42 23.6 28.42 31.43Z" style="fill:#d7d7d7"/><path d="M379 127.19v-4.68c0-7.83-21.74-31.43-28.42-31.43l-81.23 8.07v50.23l109.15 9.45c6.69 0 .5-23.83.5-31.64Z" class="cls-6"/><path d="M156.13 78.72s-24.51 8.62-29.42 31.28 1.41 58.81 30.9 69.89Z" class="cls-4"/><path d="M136 86.32a5.17 5.17 0 0 0 5.17 5.17h14.2a5.16 5.16 0 0 0 5.17-5.17 5.17 5.17 0 0 0-5.17-5.17h-14.2a5.18 5.18 0 0 0-5.17 5.17Z" class="cls-8"/><path d="M136 74s-18.11 3.93-14.78 15.86c1.74 6.23 21.11 12 27.52 8.42 2.72-1.51 3.17-17 .67-22.49-1.26-2.85-8.24-3.03-13.41-1.79Z" class="cls-9"/><path d="M149.45 75.79c-.93-2-4.77-2.71-8.75-2.47v25.92c3.28.31 6.23.07 8.08-1 2.72-1.47 3.22-16.97.67-22.45Z" class="cls-10"/><path d="M121.32 84.18C123.87 76.65 136 74 136 74c5.13-1.24 12.11-1.06 13.41 1.79a25.4 25.4 0 0 1 1.59 8.39Z" class="cls-11"/><path d="M136 169.68a5.18 5.18 0 0 0 5.17 5.17h14.2a5.17 5.17 0 0 0 5.17-5.17 5.16 5.16 0 0 0-5.17-5.17h-14.2a5.17 5.17 0 0 0-5.17 5.17Z" class="cls-8"/><path d="M136 157.36s-18.11 3.92-14.78 15.85c1.74 6.23 21.11 12 27.52 8.43 2.72-1.51 3.17-17 .67-22.5-1.26-2.85-8.24-3.03-13.41-1.78Z" class="cls-9"/><path d="M149.45 159.14c-.93-2-4.77-2.7-8.75-2.46v25.92c3.28.31 6.23.06 8.08-1 2.72-1.47 3.22-16.98.67-22.46Z" class="cls-10"/><path d="M121.32 167.54C123.87 160 136 157.36 136 157.36c5.13-1.25 12.11-1.07 13.41 1.78a25.52 25.52 0 0 1 1.57 8.4Z" class="cls-11"/><path d="M183.3 131.82c0 7.83-7.27 14.18-16.25 14.18H31.44C22.47 146 0 139.65 0 131.82v-7.65C0 116.34 23.47 110 32.44 110h134.61c9 0 16.25 6.34 16.25 14.17Z" class="cls-4"/><path d="M167.05 110h-75.7v36h75.7c9 0 16.25-6.35 16.25-14.18v-7.65c0-7.83-7.3-14.17-16.25-14.17Z" class="cls-12"/><path d="M152.94 130c0 6.37-4.7 16-12.24 18l-30.37 3.62c-6.71 0-12.16-5.16-12.16-11.54v-24.15c0-6.37 5.45-11.54 12.16-11.54L140.7 108c6.71 0 12.24 11 12.24 17.37Z" class="cls-12"/><path d="m114.19 104.85-3.86-.46c-6.71 0-12.16 5.17-12.16 11.54v24.13c0 6.38 5.45 11.54 12.16 11.54l3.86-.46Z" style="fill:#fffce6"/><path d="m114.19 104.85-3.86-.46h-1v47.12h1l3.86-.46Z" class="cls-14"/><path d="m189 126.61-45.56-2a113.45 113.45 0 0 0 5.24 34.2c4.52 14.6 14.12 30.55 23.08 47.81l6.67-6s-7.9-28.84-2.45-34.84 14.94-27.67 13.02-39.17Z" class="cls-4"/><path d="M148.54 234.35c-1.49-11.57-5.52-20.66-9-20.29s-5.08 10.06-3.58 21.63 5.52 20.67 9 20.29 5.04-10.05 3.58-21.63Z" class="cls-14"/><path d="M148.54 234.35c1.5 11.58-.11 21.27-3.59 21.63a2 2 0 0 1-.73-.06c2.62-2.24 3.7-10.93 2.39-21.08-1.39-10.77-5-19.37-8.26-20.23a2.21 2.21 0 0 1 1.19-.55c3.46-.37 7.51 8.72 9 20.29Z" class="cls-15"/><path d="M135.87 235.52a2.51 2.51 0 0 1-2-.82c-1-1.12-.72-2.95-.61-3.84a2.05 2.05 0 0 0 0-.28c0-.15.18-1.68.88-7.65 1.27-10.76 3.62-30.79 3.63-33.1 0-3.63 2.41-4.08 2.52-4.1l34.26-8.57.25 1-34.31 8.58c-.1 0-1.72.37-1.72 3.12 0 2.36-2.28 21.68-3.64 33.22-.48 4.09-.86 7.31-.87 7.55a2.9 2.9 0 0 1 0 .39c-.09.68-.29 2.28.38 3.06a1.53 1.53 0 0 0 1.2.47Z" class="cls-16"/><path d="M189.94 237.69a2.42 2.42 0 0 1-1.53 3.06l-5.8 1.64a2.41 2.41 0 0 1-2.9-1.79L169 203a2.42 2.42 0 0 1 1.53-3.05l5.8-1.65a2.42 2.42 0 0 1 2.9 1.8Z" class="cls-17"/><path d="M180.74 197.75c.19.66 0 1.31-.44 1.43l-13 3.79c-.44.13-1-.31-1.14-1-.19-.66 0-1.3.43-1.43l13-3.79c.44-.13 1 .31 1.14 1Z" class="cls-18"/><path d="m189 128-45.56-3.34s-.94-11.31 4.24-26.8c4.53-13.57 14.49-30.07 24.08-48.53l6.67 6s-7.9 28.83-2.45 34.83S190.92 116.5 189 128Z" class="cls-4"/><path d="M148.49 21.64c-1.49 11.58-5.52 20.66-9 20.29s-5.08-10-3.58-21.63S141.43-.36 144.9 0s5.1 10.06 3.59 21.64Z" class="cls-14"/><path d="M148.49 21.64C150 10.06 148.38.38 144.9 0a2 2 0 0 0-.73.06c2.63 2.24 3.7 10.94 2.39 21.09-1.39 10.76-5 19.37-8.26 20.22a2.1 2.1 0 0 0 1.19.55c3.51.38 7.51-8.7 9-20.28Z" class="cls-15"/><path d="m174.6 81.63-34.36-11.38s-2.44-.46-2.44-4.09c0-2.3-2.36-22.34-3.63-33.11-.7-5.95-.88-7.48-.88-7.64a2.22 2.22 0 0 0 0-.28c-.11-.88-.35-2.72.61-3.83a2.55 2.55 0 0 1 1.95-.83v1a1.54 1.54 0 0 0-1.21.48c-.67.78-.46 2.37-.38 3.06a2.85 2.85 0 0 1 0 .4c0 .22.39 3.44.87 7.52 1.36 11.55 3.63 30.87 3.64 33.23 0 2.76 1.62 3.11 1.69 3.12l34.42 11.4Z" class="cls-16"/><path d="M189.94 18.3a2.41 2.41 0 0 0-1.53-3.05l-5.8-1.65a2.42 2.42 0 0 0-2.9 1.79L169 53a2.41 2.41 0 0 0 1.53 3l5.8 1.65a2.41 2.41 0 0 0 2.9-1.79Z" class="cls-17"/><path d="M180.74 58.24c.19-.66 0-1.3-.44-1.43l-13-3.79c-.44-.12-1 .31-1.14 1-.19.66 0 1.3.43 1.43l13 3.79c.44.12 1-.31 1.14-1Z" class="cls-18"/><path d="M187.76 124.66c0 11.94-6.4 21.61-14.3 21.61s-14.29-9.67-14.29-21.61 6.4-21.6 14.29-21.6 14.3 9.67 14.3 21.6Z" class="cls-19"/><path d="M187.76 124.66c0 11.94-6.4 21.61-14.3 21.61s-14.29-9.67-14.29-21.61 6.4-21.6 14.29-21.6 14.3 9.67 14.3 21.6Z" class="cls-19"/><path d="M187.76 124.66c0 9-4.84 16.36-10.82 16.36s-10.83-7.32-10.83-16.36 4.85-16.35 10.83-16.35 10.82 7.32 10.82 16.35Z" style="fill:#fff"/><path d="M464.3 167c0 1.91-2.89 3.45-6.44 3.45-3.56 0-6.45-1.54-6.45-3.45V92.58c0-1.9 2.89-3.45 6.45-3.45 3.55 0 6.44 1.55 6.44 3.45Z" class="cls-4"/><path d="M490.63 115.6c0 1.09-1.54 2-3.46 2-1.91 0-3.46-.89-3.46-2V88c0-1.1 1.55-2 3.46-2 1.92 0 3.46.88 3.46 2Z" class="cls-8"/><path d="M508 89.13a5.17 5.17 0 0 1-5.16 5.17h-14.2a5.17 5.17 0 0 1-5.17-5.17 5.16 5.16 0 0 1 5.14-5.13h14.2a5.16 5.16 0 0 1 5.19 5.13Z" class="cls-8"/><path d="M507.91 76.81s18.09 3.93 14.78 15.86c-1.74 6.23-21.11 12-27.52 8.42-2.73-1.51-3.18-17-.67-22.49 1.3-2.85 8.28-3.03 13.41-1.79Z" class="cls-9"/><path d="M494.5 78.6c.93-2 4.76-2.71 8.75-2.47v25.92c-3.29.32-6.23.07-8.08-1-2.73-1.47-3.17-16.97-.67-22.45Z" class="cls-10"/><path d="M522.63 87c-2.55-7.53-14.72-10.18-14.72-10.18-5.13-1.24-12.11-1.06-13.41 1.79a25.4 25.4 0 0 0-1.57 8.39Z" class="cls-11"/><path d="M490.63 140.4c0-1.09-1.54-2-3.46-2-1.91 0-3.46.89-3.46 2V168c0 1.09 1.55 2 3.46 2 1.92 0 3.46-.89 3.46-2Z" class="cls-8"/><path d="M508 166.86a5.16 5.16 0 0 0-5.16-5.16h-14.2a5.16 5.16 0 0 0-5.17 5.16 5.16 5.16 0 0 0 5.17 5.17h14.2a5.16 5.16 0 0 0 5.16-5.17Z" class="cls-8"/><path d="M507.91 179.18s18.11-3.92 14.78-15.85c-1.74-6.23-21.11-12-27.52-8.43-2.73 1.52-3.18 17-.67 22.5 1.3 2.85 8.28 3.03 13.41 1.78Z" class="cls-9"/><path d="M494.5 177.4c.93 2 4.76 2.7 8.75 2.47V154c-3.29-.32-6.23-.07-8.08 1-2.73 1.42-3.17 16.92-.67 22.4Z" class="cls-10"/><path d="M522.63 169c-2.55 7.53-14.72 10.17-14.72 10.17-5.13 1.25-12.11 1.07-13.41-1.78a25.45 25.45 0 0 1-1.57-8.39Z" class="cls-11"/><path d="M471.07 91.64A11.69 11.69 0 1 1 459.38 80a11.69 11.69 0 0 1 11.69 11.64ZM471.07 162.55a11.69 11.69 0 1 1-11.69-11.69 11.7 11.7 0 0 1 11.69 11.69ZM594.9 130.74c0 7.83-7.27 14.18-16.25 14.18H443c-9 0-31.44-6.35-31.44-14.18v-7.65c0-7.83 23.47-14.17 32.44-14.17h134.65c9 0 16.25 6.34 16.25 14.17Z" class="cls-4"/><path d="M527.69 107.9h37.25v38.03h-37.25z" class="cls-9"/><path d="M527.69 107.9h14.84v38.03h-14.84z" class="cls-10"/><path d="M527.69 107.9h37.25v9.67h-37.25z" class="cls-11"/><path d="M540.33 93.73h-92.9a13.94 13.94 0 0 0-13.7 14.18v38a13.94 13.94 0 0 0 13.7 14.17h92.9A13.94 13.94 0 0 0 554 145.93v-38a13.94 13.94 0 0 0-13.67-14.2ZM550 143a12.39 12.39 0 0 1-12.59 12.17H452A12.39 12.39 0 0 1 439.44 143v-32.63A12.39 12.39 0 0 1 452 98.21h85.4a12.39 12.39 0 0 1 12.6 12.16Z" class="cls-21"/><path d="M470.77 157.1a3 3 0 0 1-3 3 3 3 0 0 1-3-3v-59a3 3 0 0 1 3-3 3 3 0 0 1 3 3ZM499.73 157.1a3 3 0 0 1-3 3 3 3 0 0 1-3-3v-59a3 3 0 0 1 3-3 3 3 0 0 1 3 3ZM528.69 157.1a3 3 0 0 1-3 3 3 3 0 0 1-3-3v-59a3 3 0 0 1 3-3 3 3 0 0 1 3 3Z" class="cls-21"/><path d="M433.73 107.21c.08-6.21-1.5-15.27-7.65-19.54-12.15-8.44-35.94-.62-49.14 2.57-15.89 3.85-27.63 6.92-43 11.73-8.31 2.59-17.85 4.48-26 7.58-5.41 2-14.92 12.06-13.75 19.6 1.09 7 7.61 14.85 13.37 17 8.06 3.05 23.62 7.39 31.83 10 15.37 4.81 21.66 5.78 37.55 9.63 13.2 3.2 37 11 49.14 2.57 6.15-4.26 7.73-13.32 7.65-19.53l-.27-20.79c-.06-4.59.27-20.82.27-20.82Z" style="fill:#543a22"/><path d="M338.92 138.54v-6.51c0-5.48.18-11 0-16.48 0-.86-.07-1.76-.05-2.61a6 6 0 0 0 .11-1.26c-.55-3.06-6.61-.33-8.59.13q-3.87.9-7.72 1.83l-3.67.91c-.12.18-.24.35-.33.52s-.1.18-.14.26a.8.8 0 0 1 0 .72 1.55 1.55 0 0 1-.54.58v22.22a.71.71 0 0 1 .29.32 3.14 3.14 0 0 0 1.72 1.63l3.7.69c2.56.47 5.12 1 7.66 1.51 1.25.26 2.51.53 3.75.81.87.19 2.06.7 2.88.2a1.46 1.46 0 0 0 .28-.21c1.29-1.15.65-3.93.65-5.26ZM313.52 139.49c.79.08 2 .08 2.43-.69a1.91 1.91 0 0 1 .22-.3v-21a1.23 1.23 0 0 0-.68-1.29 8.57 8.57 0 0 0-1-.49c-2.44.62-4.89 1.25-7.33 1.9s-7.13.85-7.13 3.9c0 3.79.05 7.59 0 11.38 0 1.21-.25 2.36.87 3.31s3.2 1.32 4.78 1.66c2.57.55 5.14 1.12 7.71 1.66.06-.03.09-.05.13-.04ZM380.38 102.35a2.93 2.93 0 0 0-2.11-.73c-11.64 2.37-23.27 4.75-34.85 7.28a6.34 6.34 0 0 0-2.5 2.87v31.14a5.45 5.45 0 0 0 1.28 1.91 6.18 6.18 0 0 0 1.2.88q6.87 1.63 13.75 3.47 10.08 2.72 20.23 5.23a3.39 3.39 0 0 0 2.56-.8 3.5 3.5 0 0 0 .61-1.7v-49.34c-.07-.07-.1-.15-.17-.21ZM420.71 159.79V94.08a4.14 4.14 0 0 0-2.65-1.08c-10.6 2.38-21.24 4.61-31.91 6.8a6 6 0 0 0-2.87 1.79 4.52 4.52 0 0 0-.73 1.76v50.2a5.83 5.83 0 0 0 1.73 2.11 6.93 6.93 0 0 0 .75.43q15.39 3.73 31 7c2.9.17 4.19-1.35 4.68-3.3Z" class="cls-23"/></g></g></g></svg>